<?xml version="1.0" encoding="UTF-8"?>
<svg id="Layer_1" data-name="Layer 1" xmlns="http://www.w3.org/2000/svg" viewBox="0 0 2500 1800">
  <defs>
    <style>
      .cls-1 {
        fill: #000;
      }
    </style>
  </defs>
  <path class="cls-1" d="m1700.11,1212.3l-127.21.35-128.5-222.49-53.47-92.46h98.7c9.31,0,18.14-1.3,26.62-3.77,16.02-4.47,30.27-13.07,41.7-24.5,17.72-17.84,28.63-42.38,28.26-69.65-.71-53.14-45.36-95.25-98.5-95.25h-179.26c-20.06,0-38.71-10.31-49.38-27.3l-36.1-57.5-18.02-28.62h290.24c110.34,0,201.99,88.34,202.45,198.68.23,55.46-22.07,105.72-58.42,141.95-20.73,20.61-45.94,36.87-74.09,46.88l134.98,233.68Z"/>
  <g>
    <polygon class="cls-1" points="1318.96 990.16 1194.82 990.16 1136.28 873.67 1115.79 832.8 924.15 1213.83 799.89 1214.07 1053.6 709.25 1115.67 585.93 1136.28 626.8 1177.86 709.49 1215.9 785.22 1272.44 897.7 1318.96 990.16"/>
    <polygon class="cls-1" points="1060.14 1000.17 1300.52 1212.18 1428.92 1209.19 1373.68 1104.68 1060.14 1000.17"/>
  </g>
</svg>